PathFileType	4	(X/Y/Z)	C:/Users/opensim2020/Desktop/walking_exp_matlab/subject06_walking14_straight_02.trc	
DataRate	CameraRate	NumFrames	NumMarkers	Units	OrigDataRate	OrigDataStartFrame	OrigNumFrames	
100.00	100.00	7	45	mm	100.00	1580	192	
Frame#	Time	LFHD			RFHD			LBHD			RBHD			C7			T10			CLAV			STRN			RBAK			LSHO			LUPA			LELB			LFRM			LWRA			LWRB			LFIN			RSHO			RUPA			RELB			RFRM			RWRA			RWRB			RFIN			LASI			RASI			LPSI			RPSI			LTHI			LKNE			LTIB			LANK			LHEE			LTOE			RTHI			RKNE			RTIB			RANK			RHEE			RTOE			*39			*40			*41			*42			*43			*44			
		X1	Y1	Z1	X2	Y2	Z2	X3	Y3	Z3	X4	Y4	Z4	X5	Y5	Z5	X6	Y6	Z6	X7	Y7	Z7	X8	Y8	Z8	X9	Y9	Z9	X10	Y10	Z10	X11	Y11	Z11	X12	Y12	Z12	X13	Y13	Z13	X14	Y14	Z14	X15	Y15	Z15	X16	Y16	Z16	X17	Y17	Z17	X18	Y18	Z18	X19	Y19	Z19	X20	Y20	Z20	X21	Y21	Z21	X22	Y22	Z22	X23	Y23	Z23	X24	Y24	Z24	X25	Y25	Z25	X26	Y26	Z26	X27	Y27	Z27	X28	Y28	Z28	X29	Y29	Z29	X30	Y30	Z30	X31	Y31	Z31	X32	Y32	Z32	X33	Y33	Z33	X34	Y34	Z34	X35	Y35	Z35	X36	Y36	Z36	X37	Y37	Z37	X38	Y38	Z38	X39	Y39	Z39	X40	Y40	Z40	X41	Y41	Z41	X42	Y42	Z42	X43	Y43	Z43	X44	Y44	Z44	X45	Y45	Z45	

1	0.000	-927.31293	921.92145	1668.23669	-1059.21375	918.37073	1661.21240	-932.08203	1053.76294	1608.33508	-1061.48328	1047.52148	1606.45068	-991.52740	1044.00537	1454.53052	-1005.24243	1083.03113	1127.46716	-991.92236	933.11475	1378.26233	-987.63446	896.06482	1201.33569	-1076.07141	1115.83057	1287.05334	-829.85663	988.77045	1406.73376	-761.44849	989.71631	1202.84106	-750.98151	991.24670	1089.92725	-728.76025	949.06116	945.16455	-765.28619	867.58344	843.74469	-734.92542	930.31610	827.36810	-729.24335	874.24152	756.20673	-1153.77112	972.41254	1410.63452	-1243.07678	1004.34094	1210.76245	-1259.25500	992.86884	1090.62695	-1282.77319	978.90778	972.11383	-1263.83606	918.65961	830.21039	-1299.40271	976.82422	834.52631	-1306.74048	942.64276	756.89728	-898.08881	911.87555	957.90076	-1117.23535	903.74847	974.75378	-930.91779	1069.34131	987.86206	-1098.56812	1057.19824	1001.34125	-843.98456	949.74597	642.83148	-858.89240	919.27496	482.69861	-863.90112	1098.54126	317.24982	-898.06000	1224.22241	199.83154	-945.35992	1261.50342	215.81625	-898.58356	1153.34558	74.35143	-1178.64294	943.96820	640.60529	-1149.73840	929.45880	516.83759	-1141.99097	969.35638	251.15723	-1089.34375	975.98755	66.26600	-1041.55640	1011.87616	41.79272	-1094.78625	822.04175	34.60213	-988.18677	1022.66211	1704.36951															 
2	0.010	-928.32452	912.94250	1668.49646	-1060.19641	909.03198	1661.56580	-933.65759	1044.90991	1608.77234	-1063.27869	1038.40173	1606.96045	-993.27496	1035.14905	1454.98303	-1007.20715	1074.71912	1128.12537	-993.14441	924.33783	1378.60107	-988.89270	887.76453	1201.64771	-1078.45166	1106.93372	1288.10498	-831.33612	980.75574	1407.05957	-763.41663	983.33606	1202.98999	-753.48602	986.22540	1090.05261	-731.19965	948.15790	944.21533	-768.27374	869.62531	840.22919	-737.73083	932.88953	825.78754	-732.00446	879.06635	753.02118	-1155.09778	962.57404	1411.16138	-1245.12744	991.73395	1211.15515	-1261.77234	978.18079	1091.27966	-1285.27563	961.19531	973.12683	-1265.82556	897.46228	833.08539	-1301.92102	955.39746	835.75806	-1309.23328	918.66864	759.34039	-899.44489	902.24622	959.25958	-1118.60217	896.39899	975.10974	-932.23926	1060.83545	988.46625	-1099.93994	1048.94214	1001.43823	-844.80212	936.22107	644.35474	-859.88763	902.45667	485.16476	-864.90228	1079.34595	317.36008	-899.12726	1203.30066	198.13464	-946.66779	1241.06445	213.09692	-898.25244	1129.24561	74.99047	-1179.12585	937.67627	640.44836	-1150.15625	924.72729	516.40814	-1141.72607	967.49664	251.10098	-1088.99036	975.71307	66.38577	-1041.32275	1011.85388	41.94920	-1094.66150	821.88324	34.42771	-989.53979	1013.50854	1704.82654															 
3	0.020	-929.34613	903.96149	1668.69067	-1061.13574	899.65405	1661.89050	-935.12695	1036.03162	1609.16577	-1064.49731	1028.88269	1607.43542	-995.00195	1026.34119	1455.41113	-1009.05072	1066.36133	1128.69238	-994.25098	915.55151	1378.94080	-990.12811	879.35242	1201.93738	-1080.64648	1098.02991	1289.11853	-832.76324	972.75378	1407.46143	-765.41296	977.07538	1203.22314	-756.10486	981.46051	1090.33459	-734.40308	946.95471	943.47290	-771.16663	871.87317	837.21924	-740.43500	935.44055	824.65961	-734.69818	883.83130	750.34656	-1156.24670	952.63959	1411.58057	-1247.05420	979.27277	1211.73828	-1264.09961	963.60632	1092.11963	-1287.66174	943.57440	974.45313	-1267.66797	876.25507	836.30914	-1304.30554	934.12634	837.33649	-1311.59094	894.83008	762.27692	-901.07043	893.40210	960.39465	-1120.67798	887.57819	975.48383	-933.53473	1052.25891	989.08643	-1101.27795	1040.72693	1001.48828	-846.10101	922.44769	646.12238	-861.04828	885.82001	487.66684	-866.02692	1060.00830	316.94626	-900.33789	1181.98486	195.66074	-948.07422	1220.00098	209.17210	-898.05981	1103.83948	75.33912	-1179.41638	931.75140	640.28772	-1150.69543	920.09406	515.99390	-1141.76453	965.72369	251.05147	-1088.60059	975.57617	66.53379	-1040.87341	1011.42291	41.87623	-1094.58167	821.72565	34.22919	-990.86609	1004.31995	1705.21680															 
4	0.030	-930.28119	895.06348	1668.93896	-1062.08838	890.27283	1662.21436	-936.65778	1027.20947	1609.55542	-1066.24561	1019.75562	1607.98096	-996.68378	1017.59045	1455.93420	-1010.81927	1058.04089	1129.24402	-995.37000	906.69556	1379.28943	-991.35809	870.97150	1202.25146	-1082.73621	1089.16223	1290.06934	-834.17719	964.75452	1407.93933	-767.39056	970.97821	1203.58923	-758.61475	976.79333	1090.81519	-737.12885	945.93439	943.17871	-774.10693	874.07971	834.63037	-742.94354	938.09735	824.11414	-737.54877	888.53656	748.16858	-1157.37671	943.02258	1412.17114	-1248.90466	966.95013	1212.43445	-1266.28113	948.97205	1093.12073	-1289.88220	926.02899	976.07513	-1269.48145	855.23834	839.93158	-1306.04309	912.34882	838.95673	-1313.77478	871.16681	765.61218	-902.74030	884.60443	961.52313	-1122.42810	879.45807	975.77472	-934.73016	1043.65381	989.70026	-1102.54504	1032.51086	1001.49750	-847.02100	909.14514	647.89362	-862.36829	869.54175	490.24362	-867.34497	1040.59778	316.13553	-901.64459	1159.69653	192.13559	-949.55920	1198.15039	204.12903	-898.18945	1077.71704	74.84769	-1179.76501	926.05896	640.13654	-1151.39429	915.48712	515.55817	-1142.01160	963.89325	251.01605	-1088.34766	975.12054	66.55684	-1041.04895	1011.72864	42.25335	-1094.55566	821.47528	33.98493	-992.15784	995.12451	1705.60901															 
5	0.040	-931.23334	886.07684	1669.02173	-1062.96802	880.82635	1662.51599	-938.14166	1018.35944	1609.93384	-1067.41785	1010.14044	1608.45850	-998.19983	1008.69214	1456.29456	-1012.52765	1049.68311	1129.69836	-996.38141	898.15076	1379.70947	-992.56293	862.61096	1202.52283	-1084.73267	1080.25720	1290.99255	-835.52429	956.72601	1408.43640	-769.23071	965.16168	1204.03491	-761.04285	972.29858	1091.40112	-739.47473	945.10901	943.21246	-777.01526	876.31482	832.49170	-745.55719	940.23962	823.77368	-740.39478	892.95544	746.33936	-1158.45776	933.52490	1412.79297	-1250.56726	954.31140	1213.22668	-1268.33374	934.68225	1094.25928	-1291.94397	908.68164	977.92352	-1271.27100	834.32367	843.90222	-1308.09338	891.11432	841.37738	-1315.80725	847.78961	769.33600	-904.34497	875.90753	962.54913	-1124.02795	871.23108	975.90063	-935.84711	1035.01416	990.23163	-1103.73401	1024.21033	1001.51013	-848.01605	895.86932	649.79285	-863.77844	853.55518	492.85907	-868.73132	1020.85913	314.92279	-902.94519	1136.61255	187.61731	-951.02814	1175.51831	198.11543	-898.33844	1050.46741	73.72081	-1180.09155	920.11053	639.88220	-1152.10669	910.74622	515.11816	-1142.29956	961.81818	251.00703	-1088.26465	974.73456	66.61939	-1041.18103	1011.79083	42.61290	-1094.60803	821.22504	33.69370	-993.39148	985.88763	1706.00293															 
6	0.050	-932.08130	877.07544	1669.18213	-1063.84790	871.42133	1662.76868	-939.61877	1009.50403	1610.28149	-1068.86731	1000.74316	1608.92395	-999.69873	999.82892	1456.65759	-1014.14825	1041.36475	1130.12891	-997.40247	889.38861	1380.00378	-993.77850	854.17017	1202.76282	-1086.73035	1071.33020	1291.86890	-836.81000	948.60760	1408.89209	-770.95532	959.46545	1204.51208	-763.34540	968.05286	1092.02417	-742.24982	943.99017	943.19617	-779.90582	878.42200	830.78418	-747.92609	942.24316	823.79053	-743.30133	897.33722	744.91797	-1159.55359	924.11401	1413.47168	-1252.20007	942.37878	1214.11487	-1270.33398	920.61090	1095.51807	-1293.90894	891.49811	979.94403	-1273.07544	813.56256	848.13654	-1309.78821	870.22327	843.96832	-1317.61816	824.77448	773.32056	-905.89893	867.14264	963.54504	-1125.57874	863.03778	975.95117	-936.91754	1026.32715	990.71851	-1104.92297	1015.88660	1001.53339	-848.96747	883.57776	651.88751	-865.24115	837.86096	495.51184	-870.18561	1000.89435	313.30777	-904.38898	1113.01855	182.57420	-952.84863	1151.88403	191.31537	-898.84753	1022.94775	71.74070	-1180.37988	914.11462	639.58221	-1152.89221	905.96869	514.62750	-1142.64990	959.45636	250.97607	-1088.24719	974.40051	66.73360	-1041.25366	1011.69287	42.80640	-1094.82739	821.11877	33.49978	-994.63367	976.68054	1706.35583															 
7	0.060	-933.00000	867.99243	1669.15308	-1064.64941	861.95160	1662.87634	-941.05988	1000.60590	1610.53625	-1070.23987	991.34308	1609.26819	-1001.11810	990.80554	1456.96741	-1015.80408	1033.10571	1130.55151	-998.35858	880.67377	1380.08606	-994.99274	845.71930	1203.01147	-1088.67590	1062.33789	1292.65442	-838.03735	940.43530	1409.29175	-772.54095	953.91528	1205.04541	-765.54382	963.99060	1092.70129	-744.39722	943.25171	943.57135	-782.66992	880.03937	829.37842	-750.24799	944.16620	824.12158	-746.33185	901.17767	743.77289	-1160.56702	914.67969	1414.08508	-1253.72278	930.53497	1215.04651	-1272.25073	906.76434	1096.77527	-1295.79382	874.57452	982.12396	-1275.01587	793.08203	852.81567	-1310.96497	849.56396	846.62671	-1319.19214	802.11774	777.51080	-907.44537	858.53662	964.61078	-1126.98157	854.81934	975.88269	-938.03766	1017.62250	991.16083	-1106.07190	1007.52118	1001.55347	-849.94965	870.72882	653.92688	-866.70386	822.53583	498.18930	-871.57513	980.72144	311.13864	-905.76569	1088.53174	176.55759	-954.40686	1127.70923	183.77641	-899.13037	994.11121	69.70663	-1180.75574	907.69702	639.19409	-1153.62744	901.11694	514.10242	-1142.91675	957.01849	250.91934	-1088.36255	974.11212	66.89389	-1041.23438	1011.61224	42.82853	-1094.89063	820.85535	33.17764	-995.81567	967.37970	1706.59314															 
